<svg width="680" height="620" viewBox="0 0 680 620" xmlns="http://www.w3.org/2000/svg" style="font-family: Arial, sans-serif; background: #ffffff;">
<defs>
  <marker id="arrow" viewBox="0 0 10 10" refX="8" refY="5" markerWidth="6" markerHeight="6" orient="auto-start-reverse">
    <path d="M2 1L8 5L2 9" fill="none" stroke="#888" stroke-width="1.5" stroke-linecap="round" stroke-linejoin="round"/>
  </marker>
</defs>

<!-- Developer -->
<rect x="240" y="20" width="200" height="52" rx="8" fill="#F1EFE8" stroke="#888780" stroke-width="0.8"/>
<text x="340" y="42" text-anchor="middle" dominant-baseline="central" font-size="14" font-weight="600" fill="#2C2C2A">Developer</text>
<text x="340" y="60" text-anchor="middle" dominant-baseline="central" font-size="12" fill="#5F5E5A">git push to main branch</text>

<!-- Arrow 1 -->
<line x1="340" y1="72" x2="340" y2="106" stroke="#888" stroke-width="1.5" marker-end="url(#arrow)"/>
<text x="354" y="93" font-size="11" fill="#888">push</text>

<!-- GitHub -->
<rect x="220" y="108" width="240" height="52" rx="8" fill="#F1EFE8" stroke="#888780" stroke-width="0.8"/>
<text x="340" y="130" text-anchor="middle" dominant-baseline="central" font-size="14" font-weight="600" fill="#2C2C2A">GitHub Repository</text>
<text x="340" y="148" text-anchor="middle" dominant-baseline="central" font-size="12" fill="#5F5E5A">Source of truth · main branch</text>

<!-- Arrow 2 -->
<line x1="340" y1="160" x2="340" y2="194" stroke="#888" stroke-width="1.5" marker-end="url(#arrow)"/>
<text x="354" y="181" font-size="11" fill="#888">trigger</text>

<!-- Jenkins Server outer box -->
<rect x="140" y="196" width="400" height="148" rx="12" fill="#FAEEDA" stroke="#BA7517" stroke-width="1" stroke-dasharray="6 3"/>
<text x="340" y="214" text-anchor="middle" font-size="11" fill="#BA7517" font-weight="600">Jenkins Server · 51.20.65.47:8080</text>

<!-- Jenkins Pipeline -->
<rect x="162" y="222" width="356" height="44" rx="6" fill="#FAC775" stroke="#BA7517" stroke-width="0.8"/>
<text x="340" y="240" text-anchor="middle" dominant-baseline="central" font-size="14" font-weight="600" fill="#412402">Jenkins Pipeline (Jenkinsfile)</text>
<text x="340" y="256" text-anchor="middle" dominant-baseline="central" font-size="11" fill="#633806">Install Docker → Verify → Build → Stop Old → Run</text>

<!-- Jenkins Agent -->
<rect x="162" y="278" width="356" height="44" rx="6" fill="#F1EFE8" stroke="#888780" stroke-width="0.8"/>
<text x="340" y="296" text-anchor="middle" dominant-baseline="central" font-size="14" font-weight="600" fill="#2C2C2A">Jenkins SSH Agent</text>
<text x="340" y="312" text-anchor="middle" dominant-baseline="central" font-size="11" fill="#5F5E5A">label: docker · connects via SSH</text>

<!-- Arrow 3 -->
<line x1="340" y1="344" x2="340" y2="380" stroke="#888" stroke-width="1.5" marker-end="url(#arrow)"/>
<text x="356" y="366" font-size="11" fill="#888">SSH deploy</text>

<!-- Docker Server outer box -->
<rect x="140" y="382" width="400" height="176" rx="12" fill="#E6F1FB" stroke="#185FA5" stroke-width="1" stroke-dasharray="6 3"/>
<text x="340" y="400" text-anchor="middle" font-size="11" fill="#185FA5" font-weight="600">Docker Server · 13.60.26.110</text>

<!-- Docker Engine -->
<rect x="162" y="408" width="356" height="44" rx="6" fill="#B5D4F4" stroke="#185FA5" stroke-width="0.8"/>
<text x="340" y="426" text-anchor="middle" dominant-baseline="central" font-size="14" font-weight="600" fill="#042C53">Docker Engine</text>
<text x="340" y="442" text-anchor="middle" dominant-baseline="central" font-size="11" fill="#0C447C">docker build · docker stop · docker run</text>

<!-- Nginx Container -->
<rect x="200" y="466" width="280" height="64" rx="8" fill="#9FE1CB" stroke="#0F6E56" stroke-width="0.8"/>
<text x="340" y="488" text-anchor="middle" dominant-baseline="central" font-size="14" font-weight="600" fill="#04342C">Nginx Container</text>
<text x="340" y="506" text-anchor="middle" dominant-baseline="central" font-size="11" fill="#085041">Image: nginx:alpine · Port 80:80</text>
<text x="340" y="522" text-anchor="middle" dominant-baseline="central" font-size="11" fill="#085041">name: parallax</text>

<!-- Arrow 4 -->
<line x1="340" y1="558" x2="340" y2="574" stroke="#888" stroke-width="1.5" marker-end="url(#arrow)"/>
<text x="354" y="568" font-size="11" fill="#888">HTTP :80</text>

<!-- Website -->
<rect x="200" y="576" width="280" height="36" rx="8" fill="#5DCAA5" stroke="#0F6E56" stroke-width="0.8"/>
<text x="340" y="594" text-anchor="middle" dominant-baseline="central" font-size="14" font-weight="600" fill="#04342C">Static Website Live</text>

<!-- Legend -->
<rect x="26" y="400" width="10" height="10" rx="2" fill="#FAC775" stroke="#BA7517" stroke-width="0.8"/>
<text x="40" y="410" font-size="11" fill="#5F5E5A">Jenkins</text>
<rect x="26" y="420" width="10" height="10" rx="2" fill="#B5D4F4" stroke="#185FA5" stroke-width="0.8"/>
<text x="40" y="430" font-size="11" fill="#5F5E5A">Docker</text>
<rect x="26" y="440" width="10" height="10" rx="2" fill="#9FE1CB" stroke="#0F6E56" stroke-width="0.8"/>
<text x="40" y="450" font-size="11" fill="#5F5E5A">Container</text>
</svg>
